{
	"asset":{
		"generator":"Khronos glTF Blender I/O v4.2.57",
		"version":"2.0"
	},
	"scene":0,
	"scenes":[
		{
			"name":"Scene",
			"nodes":[
				0,
				1,
				2,
				3,
				4,
				5,
				6
			]
		}
	],
	"nodes":[
		{
			"mesh":0,
			"name":"1F_AreaBox_Kicken",
			"scale":[
				5.147793292999268,
				5.147793292999268,
				5.147793292999268
			],
			"translation":[
				1.0565625429153442,
				5.232553482055664,
				-0.021016597747802734
			]
		},
		{
			"mesh":1,
			"name":"1F_AreaBox_DiningRoom",
			"scale":[
				5.147793292999268,
				5.147793292999268,
				5.147793292999268
			],
			"translation":[
				1.0565625429153442,
				5.232553482055664,
				-0.021016597747802734
			]
		},
		{
			"mesh":2,
			"name":"1F_AreaBox_Entrance",
			"scale":[
				5.147793292999268,
				5.147793292999268,
				5.147793292999268
			],
			"translation":[
				1.0565625429153442,
				5.232553482055664,
				-0.021016597747802734
			]
		},
		{
			"mesh":3,
			"name":"1F_AreaBox_FrontRoom",
			"scale":[
				5.147793292999268,
				5.147793292999268,
				5.147793292999268
			],
			"translation":[
				1.0565625429153442,
				5.232553482055664,
				-0.021016597747802734
			]
		},
		{
			"mesh":4,
			"name":"1F_AreaBox_LivingRoom",
			"scale":[
				5.147793292999268,
				5.147793292999268,
				5.147793292999268
			],
			"translation":[
				1.0565625429153442,
				5.232553482055664,
				-0.021016597747802734
			]
		},
		{
			"mesh":5,
			"name":"1F_AreaBox_RestRoom",
			"scale":[
				5.147793292999268,
				5.147793292999268,
				5.147793292999268
			],
			"translation":[
				1.0565625429153442,
				5.232553482055664,
				-0.021016597747802734
			]
		},
		{
			"mesh":6,
			"name":"1F_AreaBox_Stairs",
			"scale":[
				5.147793292999268,
				5.147793292999268,
				5.147793292999268
			],
			"translation":[
				1.0565625429153442,
				5.232553482055664,
				-0.021016597747802734
			]
		}
	],
	"materials":[
		{
			"alphaMode":"BLEND",
			"doubleSided":true,
			"name":"AreaBox_Material",
			"pbrMetallicRoughness":{
				"baseColorFactor":[
					0.009133485145866871,
					0.03189576789736748,
					0.7991030812263489,
					0.5
				],
				"metallicFactor":0,
				"roughnessFactor":0.5
			}
		}
	],
	"meshes":[
		{
			"name":"Cube.050",
			"primitives":[
				{
					"attributes":{
						"POSITION":0,
						"NORMAL":1,
						"TEXCOORD_0":2
					},
					"indices":3,
					"material":0
				}
			]
		},
		{
			"name":"Cube.076",
			"primitives":[
				{
					"attributes":{
						"POSITION":4,
						"NORMAL":5,
						"TEXCOORD_0":6
					},
					"indices":7,
					"material":0
				}
			]
		},
		{
			"name":"Cube.080",
			"primitives":[
				{
					"attributes":{
						"POSITION":8,
						"NORMAL":9,
						"TEXCOORD_0":10
					},
					"indices":11,
					"material":0
				}
			]
		},
		{
			"name":"Cube.078",
			"primitives":[
				{
					"attributes":{
						"POSITION":12,
						"NORMAL":13,
						"TEXCOORD_0":14
					},
					"indices":15,
					"material":0
				}
			]
		},
		{
			"name":"Cube.079",
			"primitives":[
				{
					"attributes":{
						"POSITION":16,
						"NORMAL":17,
						"TEXCOORD_0":18
					},
					"indices":19,
					"material":0
				}
			]
		},
		{
			"name":"Cube.077",
			"primitives":[
				{
					"attributes":{
						"POSITION":20,
						"NORMAL":21,
						"TEXCOORD_0":22
					},
					"indices":23,
					"material":0
				}
			]
		},
		{
			"name":"Cube.081",
			"primitives":[
				{
					"attributes":{
						"POSITION":24,
						"NORMAL":25,
						"TEXCOORD_0":26
					},
					"indices":27,
					"material":0
				}
			]
		}
	],
	"accessors":[
		{
			"bufferView":0,
			"componentType":5126,
			"count":24,
			"max":[
				-0.7088167667388916,
				-0.4875796437263489,
				0.9606619477272034
			],
			"min":[
				-1.08260977268219,
				-1.0109272003173828,
				0.43862301111221313
			],
			"type":"VEC3"
		},
		{
			"bufferView":1,
			"componentType":5126,
			"count":24,
			"type":"VEC3"
		},
		{
			"bufferView":2,
			"componentType":5126,
			"count":24,
			"type":"VEC2"
		},
		{
			"bufferView":3,
			"componentType":5123,
			"count":36,
			"type":"SCALAR"
		},
		{
			"bufferView":4,
			"componentType":5126,
			"count":24,
			"max":[
				-0.11670985817909241,
				-0.4875796437263489,
				0.9606619477272034
			],
			"min":[
				-0.7072886228561401,
				-1.0109272003173828,
				0.18603838980197906
			],
			"type":"VEC3"
		},
		{
			"bufferView":5,
			"componentType":5126,
			"count":24,
			"type":"VEC3"
		},
		{
			"bufferView":6,
			"componentType":5126,
			"count":24,
			"type":"VEC2"
		},
		{
			"bufferView":7,
			"componentType":5123,
			"count":36,
			"type":"SCALAR"
		},
		{
			"bufferView":8,
			"componentType":5126,
			"count":64,
			"max":[
				0.9811177849769592,
				-0.4875796437263489,
				0.9606619477272034
			],
			"min":[
				0.7172622084617615,
				-1.0109272003173828,
				-0.983609139919281
			],
			"type":"VEC3"
		},
		{
			"bufferView":9,
			"componentType":5126,
			"count":64,
			"type":"VEC3"
		},
		{
			"bufferView":10,
			"componentType":5126,
			"count":64,
			"type":"VEC2"
		},
		{
			"bufferView":11,
			"componentType":5123,
			"count":144,
			"type":"SCALAR"
		},
		{
			"bufferView":12,
			"componentType":5126,
			"count":28,
			"max":[
				0.7172622084617615,
				-0.4875796437263489,
				0.9606619477272034
			],
			"min":[
				-0.11670991033315659,
				-1.0109272003173828,
				0.18603838980197906
			],
			"type":"VEC3"
		},
		{
			"bufferView":13,
			"componentType":5126,
			"count":28,
			"type":"VEC3"
		},
		{
			"bufferView":14,
			"componentType":5126,
			"count":28,
			"type":"VEC2"
		},
		{
			"bufferView":15,
			"componentType":5123,
			"count":48,
			"type":"SCALAR"
		},
		{
			"bufferView":16,
			"componentType":5126,
			"count":36,
			"max":[
				0.7172622084617615,
				-0.4875796437263489,
				-0.22558099031448364
			],
			"min":[
				-0.11670991033315659,
				-1.0109272003173828,
				-0.983609139919281
			],
			"type":"VEC3"
		},
		{
			"bufferView":17,
			"componentType":5126,
			"count":36,
			"type":"VEC3"
		},
		{
			"bufferView":18,
			"componentType":5126,
			"count":36,
			"type":"VEC2"
		},
		{
			"bufferView":19,
			"componentType":5123,
			"count":60,
			"type":"SCALAR"
		},
		{
			"bufferView":20,
			"componentType":5126,
			"count":43,
			"max":[
				-0.59965980052948,
				-0.4875796437263489,
				-0.42203569412231445
			],
			"min":[
				-1.08260977268219,
				-1.0109272003173828,
				-0.983609139919281
			],
			"type":"VEC3"
		},
		{
			"bufferView":21,
			"componentType":5126,
			"count":43,
			"type":"VEC3"
		},
		{
			"bufferView":22,
			"componentType":5126,
			"count":43,
			"type":"VEC2"
		},
		{
			"bufferView":23,
			"componentType":5123,
			"count":84,
			"type":"SCALAR"
		},
		{
			"bufferView":24,
			"componentType":5126,
			"count":110,
			"max":[
				0.7172622084617615,
				-0.4875796437263489,
				0.4386230707168579
			],
			"min":[
				-1.08260977268219,
				-1.0109272003173828,
				-0.983609139919281
			],
			"type":"VEC3"
		},
		{
			"bufferView":25,
			"componentType":5126,
			"count":110,
			"type":"VEC3"
		},
		{
			"bufferView":26,
			"componentType":5126,
			"count":110,
			"type":"VEC2"
		},
		{
			"bufferView":27,
			"componentType":5123,
			"count":294,
			"type":"SCALAR"
		}
	],
	"bufferViews":[
		{
			"buffer":0,
			"byteLength":288,
			"byteOffset":0,
			"target":34962
		},
		{
			"buffer":0,
			"byteLength":288,
			"byteOffset":288,
			"target":34962
		},
		{
			"buffer":0,
			"byteLength":192,
			"byteOffset":576,
			"target":34962
		},
		{
			"buffer":0,
			"byteLength":72,
			"byteOffset":768,
			"target":34963
		},
		{
			"buffer":0,
			"byteLength":288,
			"byteOffset":840,
			"target":34962
		},
		{
			"buffer":0,
			"byteLength":288,
			"byteOffset":1128,
			"target":34962
		},
		{
			"buffer":0,
			"byteLength":192,
			"byteOffset":1416,
			"target":34962
		},
		{
			"buffer":0,
			"byteLength":72,
			"byteOffset":1608,
			"target":34963
		},
		{
			"buffer":0,
			"byteLength":768,
			"byteOffset":1680,
			"target":34962
		},
		{
			"buffer":0,
			"byteLength":768,
			"byteOffset":2448,
			"target":34962
		},
		{
			"buffer":0,
			"byteLength":512,
			"byteOffset":3216,
			"target":34962
		},
		{
			"buffer":0,
			"byteLength":288,
			"byteOffset":3728,
			"target":34963
		},
		{
			"buffer":0,
			"byteLength":336,
			"byteOffset":4016,
			"target":34962
		},
		{
			"buffer":0,
			"byteLength":336,
			"byteOffset":4352,
			"target":34962
		},
		{
			"buffer":0,
			"byteLength":224,
			"byteOffset":4688,
			"target":34962
		},
		{
			"buffer":0,
			"byteLength":96,
			"byteOffset":4912,
			"target":34963
		},
		{
			"buffer":0,
			"byteLength":432,
			"byteOffset":5008,
			"target":34962
		},
		{
			"buffer":0,
			"byteLength":432,
			"byteOffset":5440,
			"target":34962
		},
		{
			"buffer":0,
			"byteLength":288,
			"byteOffset":5872,
			"target":34962
		},
		{
			"buffer":0,
			"byteLength":120,
			"byteOffset":6160,
			"target":34963
		},
		{
			"buffer":0,
			"byteLength":516,
			"byteOffset":6280,
			"target":34962
		},
		{
			"buffer":0,
			"byteLength":516,
			"byteOffset":6796,
			"target":34962
		},
		{
			"buffer":0,
			"byteLength":344,
			"byteOffset":7312,
			"target":34962
		},
		{
			"buffer":0,
			"byteLength":168,
			"byteOffset":7656,
			"target":34963
		},
		{
			"buffer":0,
			"byteLength":1320,
			"byteOffset":7824,
			"target":34962
		},
		{
			"buffer":0,
			"byteLength":1320,
			"byteOffset":9144,
			"target":34962
		},
		{
			"buffer":0,
			"byteLength":880,
			"byteOffset":10464,
			"target":34962
		},
		{
			"buffer":0,
			"byteLength":588,
			"byteOffset":11344,
			"target":34963
		}
	],
	"buffers":[
		{
			"byteLength":11932,
			"uri":"areabox.bin"
		}
	]
}
